<svg width="50" height="60" viewBox="0 0 50 60" fill="none" xmlns="http://www.w3.org/2000/svg">
<path id="Rectangle 1" d="M0 15C0 9.47715 4.47715 5 10 5H40C45.5228 5 50 9.47715 50 15V45C50 50.5228 45.5228 55 40 55H10C4.47715 55 0 50.5228 0 45V15Z" fill="#4B1FC8"/>
<g id="M 1">
<g id="Group">
<g id="Group_2">
<path id="Vector" d="M39.5405 19V23.5268H38.2014V35.9548H39.5405V40.4859H29.4175V35.9548H30.7022V26.2885L26.1491 40.4859H22.1861L17.4992 26.4266V35.9548H18.7839V40.4859H10V35.9548H11.3391V23.5268H10V19H22.2657L25.0527 27.6177L27.731 19H39.5405Z" fill="white"/>
</g>
</g>
</g>
</svg>
