<svg width="59" height="60" viewBox="0 0 59 60" fill="none" xmlns="http://www.w3.org/2000/svg">
<rect width="59" height="60" fill="#1E1E1E"/>
<path d="M0 10C0 4.47715 4.47715 0 10 0H49C54.5228 0 59 4.47715 59 10V50C59 55.5228 54.5228 60 49 60H10C4.47715 60 0 55.5228 0 50V10Z" fill="black"/>
<rect x="7" y="2" width="50" height="50" rx="10" fill="white"/>
<path d="M42.888 20.744V40.968H39.528L24.648 25.128V36.712L29.928 38.44L28.648 41H18.28V38.728L21.288 36.104V20.488L17.64 18.408L18.92 15.848H25.032L39.528 31.24V20.104L34.28 18.408L35.56 15.848H45.928V18.088L42.888 20.744Z" fill="black"/>
<circle cx="47" cy="39" r="2" fill="black"/>
</svg>
