<svg width="400" height="400" viewBox="0 0 400 400" fill="none" xmlns="http://www.w3.org/2000/svg">
<rect width="400" height="400" fill="#4c0099"/>
<rect width="400" height="400" rx="80" fill="#4c0099"/>
<path d="M319 200.5C319 261.527 265.722 311 200 311C134.278 311 81 261.527 81 200.5C81 139.473 134.278 90 200 90C265.722 90 319 139.473 319 200.5Z" fill="black"/>
<path d="M194.697 253.303C197.626 256.232 202.374 256.232 205.303 253.303L253.033 205.574C255.962 202.645 255.962 197.896 253.033 194.967C250.104 192.038 245.355 192.038 242.426 194.967L200 237.393L157.574 194.967C154.645 192.038 149.896 192.038 146.967 194.967C144.038 197.896 144.038 202.645 146.967 205.574L194.697 253.303ZM207.5 248L207.5 90H192.5L192.5 248H207.5Z" fill="#FF0000"/>
</svg>
