<svg id="visual" viewBox="0 0 900 600" width="900" height="600" xmlns="http://www.w3.org/2000/svg" xmlns:xlink="http://www.w3.org/1999/xlink" version="1.1"><path d="M0 67L13.7 69C27.3 71 54.7 75 82 78C109.3 81 136.7 83 163.8 96C191 109 218 133 245.2 136C272.3 139 299.7 121 327 121C354.3 121 381.7 139 409 146C436.3 153 463.7 149 491 142C518.3 135 545.7 125 573 111C600.3 97 627.7 79 654.8 84C682 89 709 117 736.2 117C763.3 117 790.7 89 818 87C845.3 85 872.7 109 886.3 121L900 133L900 0L886.3 0C872.7 0 845.3 0 818 0C790.7 0 763.3 0 736.2 0C709 0 682 0 654.8 0C627.7 0 600.3 0 573 0C545.7 0 518.3 0 491 0C463.7 0 436.3 0 409 0C381.7 0 354.3 0 327 0C299.7 0 272.3 0 245.2 0C218 0 191 0 163.8 0C136.7 0 109.3 0 82 0C54.7 0 27.3 0 13.7 0L0 0Z"  fill="rgba(0, 0, 0, 0)"></path><path d="M0 193L13.7 215C27.3 237 54.7 281 82 298C109.3 315 136.7 305 163.8 318C191 331 218 367 245.2 356C272.3 345 299.7 287 327 263C354.3 239 381.7 249 409 269C436.3 289 463.7 319 491 331C518.3 343 545.7 337 573 317C600.3 297 627.7 263 654.8 262C682 261 709 293 736.2 304C763.3 315 790.7 305 818 293C845.3 281 872.7 267 886.3 260L900 253L900 131L886.3 119C872.7 107 845.3 83 818 85C790.7 87 763.3 115 736.2 115C709 115 682 87 654.8 82C627.7 77 600.3 95 573 109C545.7 123 518.3 133 491 140C463.7 147 436.3 151 409 144C381.7 137 354.3 119 327 119C299.7 119 272.3 137 245.2 134C218 131 191 107 163.8 94C136.7 81 109.3 79 82 76C54.7 73 27.3 69 13.7 67L0 65Z" fill="#9403e5"></path><path d="M0 421L13.7 428C27.3 435 54.7 449 82 454C109.3 459 136.7 455 163.8 462C191 469 218 487 245.2 489C272.3 491 299.7 477 327 465C354.3 453 381.7 443 409 450C436.3 457 463.7 481 491 476C518.3 471 545.7 437 573 424C600.3 411 627.7 419 654.8 419C682 419 709 411 736.2 416C763.3 421 790.7 439 818 449C845.3 459 872.7 461 886.3 462L900 463L900 251L886.3 258C872.7 265 845.3 279 818 291C790.7 303 763.3 313 736.2 302C709 291 682 259 654.8 260C627.7 261 600.3 295 573 315C545.7 335 518.3 341 491 329C463.7 317 436.3 287 409 267C381.7 247 354.3 237 327 261C299.7 285 272.3 343 245.2 354C218 365 191 329 163.8 316C136.7 303 109.3 313 82 296C54.7 279 27.3 235 13.7 213L0 191Z" fill="#7b03cc"></path><path d="M0 541L13.7 540C27.3 539 54.7 537 82 533C109.3 529 136.7 523 163.8 525C191 527 218 537 245.2 534C272.3 531 299.7 515 327 517C354.3 519 381.7 539 409 547C436.3 555 463.7 551 491 542C518.3 533 545.7 519 573 521C600.3 523 627.7 541 654.8 541C682 541 709 523 736.2 520C763.3 517 790.7 529 818 530C845.3 531 872.7 521 886.3 516L900 511L900 461L886.3 460C872.7 459 845.3 457 818 447C790.7 437 763.3 419 736.2 414C709 409 682 417 654.8 417C627.7 417 600.3 409 573 422C545.7 435 518.3 469 491 474C463.7 479 436.3 455 409 448C381.7 441 354.3 451 327 463C299.7 475 272.3 489 245.2 487C218 485 191 467 163.8 460C136.7 453 109.3 457 82 452C54.7 447 27.3 433 13.7 426L0 419Z" fill="#6302b2"></path><path d="M0 601L13.7 601C27.3 601 54.7 601 82 601C109.3 601 136.7 601 163.8 601C191 601 218 601 245.2 601C272.3 601 299.7 601 327 601C354.3 601 381.7 601 409 601C436.3 601 463.7 601 491 601C518.3 601 545.7 601 573 601C600.3 601 627.7 601 654.8 601C682 601 709 601 736.2 601C763.3 601 790.7 601 818 601C845.3 601 872.7 601 886.3 601L900 601L900 509L886.3 514C872.7 519 845.3 529 818 528C790.7 527 763.3 515 736.2 518C709 521 682 539 654.8 539C627.7 539 600.3 521 573 519C545.7 517 518.3 531 491 540C463.7 549 436.3 553 409 545C381.7 537 354.3 517 327 515C299.7 513 272.3 529 245.2 532C218 535 191 525 163.8 523C136.7 521 109.3 527 82 531C54.7 535 27.3 537 13.7 538L0 539Z" fill="#4c0099"></path></svg>