<svg id="visual" viewBox="0 0 960 540" width="960" height="540" xmlns="http://www.w3.org/2000/svg" xmlns:xlink="http://www.w3.org/1999/xlink" version="1.1"><path d="M0 60L13.3 69C26.7 78 53.3 96 80 98.8C106.7 101.7 133.3 89.3 160 78.7C186.7 68 213.3 59 240 64.3C266.7 69.7 293.3 89.3 320 89.3C346.7 89.3 373.3 69.7 400 67C426.7 64.3 453.3 78.7 480 84C506.7 89.3 533.3 85.7 560 85.7C586.7 85.7 613.3 89.3 640 89.3C666.7 89.3 693.3 85.7 720 87.5C746.7 89.3 773.3 96.7 800 91.3C826.7 86 853.3 68 880 58C906.7 48 933.3 46 946.7 45L960 44L960 0L946.7 0C933.3 0 906.7 0 880 0C853.3 0 826.7 0 800 0C773.3 0 746.7 0 720 0C693.3 0 666.7 0 640 0C613.3 0 586.7 0 560 0C533.3 0 506.7 0 480 0C453.3 0 426.7 0 400 0C373.3 0 346.7 0 320 0C293.3 0 266.7 0 240 0C213.3 0 186.7 0 160 0C133.3 0 106.7 0 80 0C53.3 0 26.7 0 13.3 0L0 0Z" fill="rgba(0,0,0,0)"></path><path d="M0 114L13.3 126.7C26.7 139.3 53.3 164.7 80 168.3C106.7 172 133.3 154 160 136.8C186.7 119.7 213.3 103.3 240 115C266.7 126.7 293.3 166.3 320 174.5C346.7 182.7 373.3 159.3 400 146.8C426.7 134.3 453.3 132.7 480 139.8C506.7 147 533.3 163 560 170.2C586.7 177.3 613.3 175.7 640 165.8C666.7 156 693.3 138 720 138C746.7 138 773.3 156 800 148.8C826.7 141.7 853.3 109.3 880 103C906.7 96.7 933.3 116.3 946.7 126.2L960 136L960 42L946.7 43C933.3 44 906.7 46 880 56C853.3 66 826.7 84 800 89.3C773.3 94.7 746.7 87.3 720 85.5C693.3 83.7 666.7 87.3 640 87.3C613.3 87.3 586.7 83.7 560 83.7C533.3 83.7 506.7 87.3 480 82C453.3 76.7 426.7 62.3 400 65C373.3 67.7 346.7 87.3 320 87.3C293.3 87.3 266.7 67.7 240 62.3C213.3 57 186.7 66 160 76.7C133.3 87.3 106.7 99.7 80 96.8C53.3 94 26.7 76 13.3 67L0 58Z" fill="rgba(0 ,0 ,0 ,0 )"></path><path d="M0 336L13.3 345.8C26.7 355.7 53.3 375.3 80 360C106.7 344.7 133.3 294.3 160 270C186.7 245.7 213.3 247.3 240 277C266.7 306.7 293.3 364.3 320 376.2C346.7 388 373.3 354 400 349.5C426.7 345 453.3 370 480 379.8C506.7 389.7 533.3 384.3 560 363.7C586.7 343 613.3 307 640 290.8C666.7 274.7 693.3 278.3 720 273C746.7 267.7 773.3 253.3 800 260.5C826.7 267.7 853.3 296.3 880 303.5C906.7 310.7 933.3 296.3 946.7 289.2L960 282L960 134L946.7 124.2C933.3 114.3 906.7 94.7 880 101C853.3 107.3 826.7 139.7 800 146.8C773.3 154 746.7 136 720 136C693.3 136 666.7 154 640 163.8C613.3 173.7 586.7 175.3 560 168.2C533.3 161 506.7 145 480 137.8C453.3 130.7 426.7 132.3 400 144.8C373.3 157.3 346.7 180.7 320 172.5C293.3 164.3 266.7 124.7 240 113C213.3 101.3 186.7 117.7 160 134.8C133.3 152 106.7 170 80 166.3C53.3 162.7 26.7 137.3 13.3 124.7L0 112Z" fill="#7302c8"></path><path d="M0 379L13.3 394.3C26.7 409.7 53.3 440.3 80 442.2C106.7 444 133.3 417 160 396.3C186.7 375.7 213.3 361.3 240 378.3C266.7 395.3 293.3 443.7 320 447.2C346.7 450.7 373.3 409.3 400 403.2C426.7 397 453.3 426 480 435C506.7 444 533.3 433 560 425.7C586.7 418.3 613.3 414.7 640 402.2C666.7 389.7 693.3 368.3 720 363C746.7 357.7 773.3 368.3 800 372.8C826.7 377.3 853.3 375.7 880 378.3C906.7 381 933.3 388 946.7 391.5L960 395L960 280L946.7 287.2C933.3 294.3 906.7 308.7 880 301.5C853.3 294.3 826.7 265.7 800 258.5C773.3 251.3 746.7 265.7 720 271C693.3 276.3 666.7 272.7 640 288.8C613.3 305 586.7 341 560 361.7C533.3 382.3 506.7 387.7 480 377.8C453.3 368 426.7 343 400 347.5C373.3 352 346.7 386 320 374.2C293.3 362.3 266.7 304.7 240 275C213.3 245.3 186.7 243.7 160 268C133.3 292.3 106.7 342.7 80 358C53.3 373.3 26.7 353.7 13.3 343.8L0 334Z" fill="#5f01b0"></path><path d="M0 541L13.3 541C26.7 541 53.3 541 80 541C106.7 541 133.3 541 160 541C186.7 541 213.3 541 240 541C266.7 541 293.3 541 320 541C346.7 541 373.3 541 400 541C426.7 541 453.3 541 480 541C506.7 541 533.3 541 560 541C586.7 541 613.3 541 640 541C666.7 541 693.3 541 720 541C746.7 541 773.3 541 800 541C826.7 541 853.3 541 880 541C906.7 541 933.3 541 946.7 541L960 541L960 393L946.7 389.5C933.3 386 906.7 379 880 376.3C853.3 373.7 826.7 375.3 800 370.8C773.3 366.3 746.7 355.7 720 361C693.3 366.3 666.7 387.7 640 400.2C613.3 412.7 586.7 416.3 560 423.7C533.3 431 506.7 442 480 433C453.3 424 426.7 395 400 401.2C373.3 407.3 346.7 448.7 320 445.2C293.3 441.7 266.7 393.3 240 376.3C213.3 359.3 186.7 373.7 160 394.3C133.3 415 106.7 442 80 440.2C53.3 438.3 26.7 407.7 13.3 392.3L0 377Z" fill="#4c0099"></path></svg>